# xmcd
#
# Track frame offsets: 
#        150
#        33542
#        58986
#        92851
#        124994
#        152907
#        176405
#
# Disc length: 2709 seconds
#
# Revision: 2
# Processed by: cddbd v1.5.2PL0 Copyright (c) Steve Scherf et al.
# Submitted via: ExactAudioCopy v0.99pb5
#
DISCID=600a9307
DTITLE=Medwyn Goodall - Rytrhm of the Ancients
DYEAR=2003
DGENRE=New Age
TTITLE0=Trail of Vines
TTITLE1=Hail of Symbols
TTITLE2=Book of Secrets
TTITLE3=Lost City
TTITLE4=Prophecy
TTITLE5=Chamber of the Gods
TTITLE6=The Gates of Eternity
EXTD=
EXTT0=
EXTT1=
EXTT2=
EXTT3=
EXTT4=
EXTT5=
EXTT6=
PLAYORDER=
